# xmcd
#
# Track frame offsets: 
#        150
#        12870
#        24319
#        35351
#        49449
#        60335
#        72606
#        85132
#        98068
#        109382
#        121682
#        131368
#
# Disc length: 1935 seconds
#
# Revision: 1
# Processed by: cddbd v1.5.2PL0 Copyright (c) Steve Scherf et al.
# Submitted via: ExactAudioCopy v0.95b1
#
DISCID=97078d0c
DTITLE=Various Artist - Classic Country - Neon Memories
DYEAR=1900
DGENRE=Country
TTITLE0=Hank Snow/I`M MOVING ON
TTITLE1=Red Sovine and Webb Pierce/WHY BABY WHY
TTITLE2=Marty Robbins/SINGING THE BLUES
TTITLE3=Lefty Frizzell/ALWAYS LATE (WITH YOUR KISSES)
TTITLE4=Webb Pierce/THERE STANDS THE GLASS
TTITLE5=Hank Williams/YOUR CHEATIN` HEART
TTITLE6=Porter Wagoner/A SATISFIED MIND
TTITLE7=Jim Reeves/FOUR WALLS
TTITLE8=Carl Smith/HEY JOE
TTITLE9=Hank Thompson/THE WILD SIDE OF LIFE
TTITLE10=The Louvin Brothers/I DON`T BELIEVE YOU`VE MET MY BABY
TTITLE11=Red Foley and Ernest Tubb/GOODNIGHT IRENE
EXTD=
EXTT0=
EXTT1=
EXTT2=
EXTT3=
EXTT4=
EXTT5=
EXTT6=
EXTT7=
EXTT8=
EXTT9=
EXTT10=
EXTT11=
PLAYORDER=
